%TF.GenerationSoftware,KiCad,Pcbnew,7.0.9*%
%TF.CreationDate,2024-01-04T07:45:15-05:00*%
%TF.ProjectId,trigger_line,74726967-6765-4725-9f6c-696e652e6b69,rev?*%
%TF.SameCoordinates,Original*%
%TF.FileFunction,Copper,L1,Top*%
%TF.FilePolarity,Positive*%
%FSLAX46Y46*%
G04 Gerber Fmt 4.6, Leading zero omitted, Abs format (unit mm)*
G04 Created by KiCad (PCBNEW 7.0.9) date 2024-01-04 07:45:15*
%MOMM*%
%LPD*%
G01*
G04 APERTURE LIST*
%TA.AperFunction,ComponentPad*%
%ADD10R,1.358000X1.358000*%
%TD*%
%TA.AperFunction,ComponentPad*%
%ADD11C,1.358000*%
%TD*%
%TA.AperFunction,ComponentPad*%
%ADD12R,1.244600X1.244600*%
%TD*%
%TA.AperFunction,ComponentPad*%
%ADD13C,1.244600*%
%TD*%
%TA.AperFunction,ComponentPad*%
%ADD14O,1.016000X2.032000*%
%TD*%
%TA.AperFunction,ViaPad*%
%ADD15C,0.800000*%
%TD*%
%TA.AperFunction,Conductor*%
%ADD16C,0.250000*%
%TD*%
G04 APERTURE END LIST*
D10*
%TO.P,U2,1*%
%TO.N,Net-(R5-Pad2)*%
X134620000Y-83820000D03*
D11*
%TO.P,U2,2*%
%TO.N,/GNDA*%
X132080000Y-83820000D03*
%TO.P,U2,3*%
X129540000Y-83820000D03*
%TO.P,U2,4*%
%TO.N,Net-(R6-Pad2)*%
X127000000Y-83820000D03*
%TO.P,U2,5*%
%TO.N,Net-(R7-Pad2)*%
X124460000Y-83820000D03*
%TO.P,U2,6*%
%TO.N,/GNDA*%
X121920000Y-83820000D03*
%TO.P,U2,7*%
X119380000Y-83820000D03*
%TO.P,U2,8*%
%TO.N,Net-(R8-Pad2)*%
X116840000Y-83820000D03*
%TO.P,U2,9*%
%TO.N,Net-(P2-Pad8)*%
X116840000Y-91440000D03*
%TO.P,U2,10*%
%TO.N,/+5V*%
X119380000Y-91440000D03*
%TO.P,U2,11*%
X121920000Y-91440000D03*
%TO.P,U2,12*%
%TO.N,Net-(P2-Pad7)*%
X124460000Y-91440000D03*
%TO.P,U2,13*%
%TO.N,Net-(P2-Pad6)*%
X127000000Y-91440000D03*
%TO.P,U2,14*%
%TO.N,/+5V*%
X129540000Y-91440000D03*
%TO.P,U2,15*%
X132080000Y-91440000D03*
%TO.P,U2,16*%
%TO.N,Net-(P2-Pad5)*%
X134620000Y-91440000D03*
%TD*%
D12*
%TO.P,R7,1*%
%TO.N,Net-(P1-Pad7)*%
X127000000Y-68580000D03*
D13*
%TO.P,R7,2*%
%TO.N,Net-(R7-Pad2)*%
X127000000Y-76200000D03*
%TD*%
D12*
%TO.P,R4,1*%
%TO.N,Net-(P1-Pad4)*%
X142240000Y-68580000D03*
D13*
%TO.P,R4,2*%
%TO.N,Net-(R4-Pad2)*%
X142240000Y-76200000D03*
%TD*%
D14*
%TO.P,P1,1*%
%TO.N,Net-(P1-Pad1)*%
X144740000Y-59690000D03*
%TO.P,P1,2*%
%TO.N,Net-(P1-Pad2)*%
X143490000Y-59690000D03*
%TO.P,P1,3*%
%TO.N,Net-(P1-Pad3)*%
X142240000Y-59690000D03*
%TO.P,P1,4*%
%TO.N,Net-(P1-Pad4)*%
X140990000Y-59690000D03*
%TO.P,P1,5*%
%TO.N,Net-(P1-Pad5)*%
X139740000Y-59690000D03*
%TO.P,P1,6*%
%TO.N,Net-(P1-Pad6)*%
X138490000Y-59690000D03*
%TO.P,P1,7*%
%TO.N,Net-(P1-Pad7)*%
X137240000Y-59690000D03*
%TO.P,P1,8*%
%TO.N,Net-(P1-Pad8)*%
X135990000Y-59690000D03*
%TO.P,P1,9*%
%TO.N,/GNDA*%
X134740000Y-59690000D03*
%TD*%
D12*
%TO.P,R13,1*%
%TO.N,Net-(P2-Pad5)*%
X137160000Y-99060000D03*
D13*
%TO.P,R13,2*%
%TO.N,GND*%
X137160000Y-106680000D03*
%TD*%
D12*
%TO.P,R15,1*%
%TO.N,Net-(P2-Pad7)*%
X127000000Y-99060000D03*
D13*
%TO.P,R15,2*%
%TO.N,GND*%
X127000000Y-106680000D03*
%TD*%
D12*
%TO.P,R11,1*%
%TO.N,Net-(P2-Pad3)*%
X147320000Y-99060000D03*
D13*
%TO.P,R11,2*%
%TO.N,GND*%
X147320000Y-106680000D03*
%TD*%
D10*
%TO.P,U1,1*%
%TO.N,Net-(R1-Pad2)*%
X162560000Y-83820000D03*
D11*
%TO.P,U1,2*%
%TO.N,/GNDA*%
X160020000Y-83820000D03*
%TO.P,U1,3*%
X157480000Y-83820000D03*
%TO.P,U1,4*%
%TO.N,Net-(R2-Pad2)*%
X154940000Y-83820000D03*
%TO.P,U1,5*%
%TO.N,Net-(R3-Pad2)*%
X152400000Y-83820000D03*
%TO.P,U1,6*%
%TO.N,/GNDA*%
X149860000Y-83820000D03*
%TO.P,U1,7*%
X147320000Y-83820000D03*
%TO.P,U1,8*%
%TO.N,Net-(R4-Pad2)*%
X144780000Y-83820000D03*
%TO.P,U1,9*%
%TO.N,Net-(P2-Pad4)*%
X144780000Y-91440000D03*
%TO.P,U1,10*%
%TO.N,/+5V*%
X147320000Y-91440000D03*
%TO.P,U1,11*%
X149860000Y-91440000D03*
%TO.P,U1,12*%
%TO.N,Net-(P2-Pad3)*%
X152400000Y-91440000D03*
%TO.P,U1,13*%
%TO.N,Net-(P2-Pad2)*%
X154940000Y-91440000D03*
%TO.P,U1,14*%
%TO.N,/+5V*%
X157480000Y-91440000D03*
%TO.P,U1,15*%
X160020000Y-91440000D03*
%TO.P,U1,16*%
%TO.N,Net-(P2-Pad1)*%
X162560000Y-91440000D03*
%TD*%
D12*
%TO.P,R14,1*%
%TO.N,Net-(P2-Pad6)*%
X132080000Y-99060000D03*
D13*
%TO.P,R14,2*%
%TO.N,GND*%
X132080000Y-106680000D03*
%TD*%
D12*
%TO.P,R5,1*%
%TO.N,Net-(P1-Pad5)*%
X137160000Y-68580000D03*
D13*
%TO.P,R5,2*%
%TO.N,Net-(R5-Pad2)*%
X137160000Y-76200000D03*
%TD*%
D12*
%TO.P,R2,1*%
%TO.N,Net-(P1-Pad2)*%
X152400000Y-68580000D03*
D13*
%TO.P,R2,2*%
%TO.N,Net-(R2-Pad2)*%
X152400000Y-76200000D03*
%TD*%
D12*
%TO.P,R3,1*%
%TO.N,Net-(P1-Pad3)*%
X147320000Y-68580000D03*
D13*
%TO.P,R3,2*%
%TO.N,Net-(R3-Pad2)*%
X147320000Y-76200000D03*
%TD*%
D12*
%TO.P,R1,1*%
%TO.N,Net-(P1-Pad1)*%
X157480000Y-68580000D03*
D13*
%TO.P,R1,2*%
%TO.N,Net-(R1-Pad2)*%
X157480000Y-76200000D03*
%TD*%
D12*
%TO.P,R10,1*%
%TO.N,Net-(P2-Pad2)*%
X152400000Y-99060000D03*
D13*
%TO.P,R10,2*%
%TO.N,GND*%
X152400000Y-106680000D03*
%TD*%
D12*
%TO.P,R9,1*%
%TO.N,Net-(P2-Pad1)*%
X157480000Y-99060000D03*
D13*
%TO.P,R9,2*%
%TO.N,GND*%
X157480000Y-106680000D03*
%TD*%
D12*
%TO.P,R6,1*%
%TO.N,Net-(P1-Pad6)*%
X132080000Y-68580000D03*
D13*
%TO.P,R6,2*%
%TO.N,Net-(R6-Pad2)*%
X132080000Y-76200000D03*
%TD*%
D12*
%TO.P,R12,1*%
%TO.N,Net-(P2-Pad4)*%
X142240000Y-99060000D03*
D13*
%TO.P,R12,2*%
%TO.N,GND*%
X142240000Y-106680000D03*
%TD*%
D12*
%TO.P,R8,1*%
%TO.N,Net-(P1-Pad8)*%
X121920000Y-68580000D03*
D13*
%TO.P,R8,2*%
%TO.N,Net-(R8-Pad2)*%
X121920000Y-76200000D03*
%TD*%
D12*
%TO.P,R16,1*%
%TO.N,Net-(P2-Pad8)*%
X121920000Y-99060000D03*
D13*
%TO.P,R16,2*%
%TO.N,GND*%
X121920000Y-106680000D03*
%TD*%
D14*
%TO.P,P2,10*%
%TO.N,GND*%
X145325000Y-115570000D03*
%TO.P,P2,9*%
%TO.N,/+5V*%
X144075000Y-115570000D03*
%TO.P,P2,8*%
%TO.N,Net-(P2-Pad8)*%
X142825000Y-115570000D03*
%TO.P,P2,7*%
%TO.N,Net-(P2-Pad7)*%
X141575000Y-115570000D03*
%TO.P,P2,6*%
%TO.N,Net-(P2-Pad6)*%
X140325000Y-115570000D03*
%TO.P,P2,5*%
%TO.N,Net-(P2-Pad5)*%
X139075000Y-115570000D03*
%TO.P,P2,4*%
%TO.N,Net-(P2-Pad4)*%
X137825000Y-115570000D03*
%TO.P,P2,3*%
%TO.N,Net-(P2-Pad3)*%
X136575000Y-115570000D03*
%TO.P,P2,2*%
%TO.N,Net-(P2-Pad2)*%
X135325000Y-115570000D03*
%TO.P,P2,1*%
%TO.N,Net-(P2-Pad1)*%
X134075000Y-115570000D03*
%TD*%
D15*
%TO.N,Net-(P2-Pad1)*%
X160020000Y-111760000D03*
%TO.N,Net-(P2-Pad2)*%
X137160000Y-111760000D03*
X154940000Y-110490000D03*
%TO.N,Net-(P2-Pad3)*%
X139700000Y-110490000D03*
X149860000Y-109220000D03*
%TO.N,Net-(P2-Pad7)*%
X129540000Y-111760000D03*
%TO.N,Net-(P2-Pad8)*%
X124460000Y-110490000D03*
%TD*%
D16*
%TO.N,Net-(P2-Pad4)*%
X137825000Y-113635000D02*
X144780000Y-106680000D01*
X144780000Y-104140000D02*
X144780000Y-106680000D01*
X137825000Y-115570000D02*
X137825000Y-113635000D01*
%TO.N,Net-(P1-Pad1)*%
X144740000Y-59690000D02*
X144740000Y-63460000D01*
X153670000Y-64770000D02*
X157480000Y-68580000D01*
X144740000Y-63460000D02*
X146050000Y-64770000D01*
X146050000Y-64770000D02*
X153670000Y-64770000D01*
%TO.N,Net-(P1-Pad2)*%
X146050000Y-66040000D02*
X149860000Y-66040000D01*
X149860000Y-66040000D02*
X152400000Y-68580000D01*
X143490000Y-59690000D02*
X143490000Y-63480000D01*
X143490000Y-63480000D02*
X146050000Y-66040000D01*
%TO.N,Net-(P1-Pad3)*%
X142240000Y-59690000D02*
X142240000Y-63500000D01*
X142240000Y-63500000D02*
X147320000Y-68580000D01*
%TO.N,Net-(P1-Pad4)*%
X140990000Y-67330000D02*
X142240000Y-68580000D01*
X140990000Y-59690000D02*
X140990000Y-67330000D01*
%TO.N,Net-(P1-Pad5)*%
X139740000Y-66000000D02*
X137160000Y-68580000D01*
X139740000Y-59690000D02*
X139740000Y-66000000D01*
%TO.N,Net-(P1-Pad6)*%
X134620000Y-67310000D02*
X133350000Y-67310000D01*
X138490000Y-63440000D02*
X134620000Y-67310000D01*
X133350000Y-67310000D02*
X132080000Y-68580000D01*
X138490000Y-59690000D02*
X138490000Y-63440000D01*
%TO.N,Net-(P1-Pad7)*%
X137240000Y-59690000D02*
X137240000Y-63420000D01*
X134620000Y-66040000D02*
X129540000Y-66040000D01*
X129540000Y-66040000D02*
X127000000Y-68580000D01*
X137240000Y-63420000D02*
X134620000Y-66040000D01*
%TO.N,Net-(P1-Pad8)*%
X135990000Y-59690000D02*
X135990000Y-63400000D01*
X125730000Y-64770000D02*
X121920000Y-68580000D01*
X135990000Y-63400000D02*
X134620000Y-64770000D01*
X134620000Y-64770000D02*
X125730000Y-64770000D01*
%TO.N,Net-(P2-Pad1)*%
X157480000Y-97790000D02*
X157480000Y-99060000D01*
X162560000Y-91440000D02*
X162560000Y-92710000D01*
X157480000Y-99060000D02*
X157480000Y-101600000D01*
X162560000Y-92710000D02*
X157480000Y-97790000D01*
X157480000Y-101600000D02*
X160020000Y-104140000D01*
X160020000Y-104140000D02*
X160020000Y-111760000D01*
%TO.N,Net-(P2-Pad2)*%
X154940000Y-91440000D02*
X154940000Y-92710000D01*
X154940000Y-92710000D02*
X152400000Y-95250000D01*
X135325000Y-113595000D02*
X135325000Y-115570000D01*
X152400000Y-95250000D02*
X152400000Y-99060000D01*
X152400000Y-99060000D02*
X152400000Y-101600000D01*
X154940000Y-104140000D02*
X154940000Y-110490000D01*
X152400000Y-101600000D02*
X154940000Y-104140000D01*
X137160000Y-111760000D02*
X135325000Y-113595000D01*
%TO.N,Net-(P2-Pad3)*%
X139700000Y-110490000D02*
X136575000Y-113615000D01*
X147320000Y-101600000D02*
X149860000Y-104140000D01*
X152400000Y-91440000D02*
X152400000Y-92710000D01*
X136575000Y-113615000D02*
X136575000Y-115570000D01*
X149860000Y-104140000D02*
X149860000Y-109220000D01*
X147320000Y-99060000D02*
X147320000Y-101600000D01*
X152400000Y-92710000D02*
X147320000Y-97790000D01*
X147320000Y-97790000D02*
X147320000Y-99060000D01*
%TO.N,Net-(P2-Pad4)*%
X142240000Y-99060000D02*
X142240000Y-101600000D01*
X142240000Y-95250000D02*
X142240000Y-99060000D01*
X144780000Y-92710000D02*
X142240000Y-95250000D01*
X144780000Y-91440000D02*
X144780000Y-92710000D01*
X142240000Y-101600000D02*
X144780000Y-104140000D01*
%TO.N,Net-(P2-Pad5)*%
X132080000Y-114300000D02*
X139700000Y-106680000D01*
X134620000Y-91440000D02*
X134620000Y-92710000D01*
X137160000Y-95250000D02*
X137160000Y-99060000D01*
X139700000Y-104140000D02*
X137160000Y-101600000D01*
X138430000Y-118110000D02*
X133350000Y-118110000D01*
X139075000Y-115570000D02*
X139075000Y-117465000D01*
X133350000Y-118110000D02*
X132080000Y-116840000D01*
X134620000Y-92710000D02*
X137160000Y-95250000D01*
X139075000Y-117465000D02*
X138430000Y-118110000D01*
X132080000Y-116840000D02*
X132080000Y-114300000D01*
X137160000Y-101600000D02*
X137160000Y-99060000D01*
X139700000Y-106680000D02*
X139700000Y-104140000D01*
%TO.N,Net-(P2-Pad6)*%
X133350000Y-119380000D02*
X130810000Y-116840000D01*
X127000000Y-91440000D02*
X127000000Y-92710000D01*
X134620000Y-106680000D02*
X134620000Y-104140000D01*
X134620000Y-104140000D02*
X132080000Y-101600000D01*
X132080000Y-101600000D02*
X132080000Y-99060000D01*
X140325000Y-115570000D02*
X140325000Y-117485000D01*
X140325000Y-117485000D02*
X138430000Y-119380000D01*
X132080000Y-97790000D02*
X132080000Y-99060000D01*
X127000000Y-92710000D02*
X132080000Y-97790000D01*
X138430000Y-119380000D02*
X133350000Y-119380000D01*
X130810000Y-116840000D02*
X130810000Y-110490000D01*
X130810000Y-110490000D02*
X134620000Y-106680000D01*
%TO.N,Net-(P2-Pad7)*%
X124460000Y-91440000D02*
X124460000Y-92710000D01*
X129540000Y-104140000D02*
X129540000Y-111760000D01*
X127000000Y-99060000D02*
X127000000Y-101600000D01*
X127000000Y-101600000D02*
X129540000Y-104140000D01*
X124460000Y-92710000D02*
X127000000Y-95250000D01*
X127000000Y-95250000D02*
X127000000Y-99060000D01*
%TO.N,Net-(P2-Pad8)*%
X116840000Y-91440000D02*
X116840000Y-92710000D01*
X116840000Y-92710000D02*
X121920000Y-97790000D01*
X124460000Y-110490000D02*
X124460000Y-104140000D01*
X121920000Y-99060000D02*
X121920000Y-101600000D01*
X121920000Y-97790000D02*
X121920000Y-99060000D01*
X121920000Y-101600000D02*
X124460000Y-104140000D01*
%TO.N,GND*%
X145325000Y-112485000D02*
X145325000Y-115570000D01*
X147320000Y-110490000D02*
X145325000Y-112485000D01*
X147320000Y-106680000D02*
X147320000Y-110490000D01*
%TO.N,Net-(R1-Pad2)*%
X162560000Y-82550000D02*
X162560000Y-83820000D01*
X157480000Y-76200000D02*
X157480000Y-77470000D01*
X157480000Y-77470000D02*
X162560000Y-82550000D01*
%TO.N,Net-(R2-Pad2)*%
X152400000Y-77470000D02*
X154940000Y-80010000D01*
X154940000Y-80010000D02*
X154940000Y-83820000D01*
X152400000Y-76200000D02*
X152400000Y-77470000D01*
%TO.N,Net-(R3-Pad2)*%
X147320000Y-77470000D02*
X152400000Y-82550000D01*
X147320000Y-76200000D02*
X147320000Y-77470000D01*
X152400000Y-82550000D02*
X152400000Y-83820000D01*
%TO.N,Net-(R4-Pad2)*%
X144780000Y-80010000D02*
X144780000Y-83820000D01*
X142240000Y-76200000D02*
X142240000Y-77470000D01*
X142240000Y-77470000D02*
X144780000Y-80010000D01*
%TO.N,Net-(R5-Pad2)*%
X134620000Y-80010000D02*
X134620000Y-83820000D01*
X137160000Y-77470000D02*
X134620000Y-80010000D01*
X137160000Y-76200000D02*
X137160000Y-77470000D01*
%TO.N,Net-(R6-Pad2)*%
X127000000Y-82550000D02*
X127000000Y-83820000D01*
X132080000Y-77470000D02*
X127000000Y-82550000D01*
X132080000Y-76200000D02*
X132080000Y-77470000D01*
%TO.N,Net-(R7-Pad2)*%
X127000000Y-77470000D02*
X124460000Y-80010000D01*
X127000000Y-76200000D02*
X127000000Y-77470000D01*
X124460000Y-80010000D02*
X124460000Y-83820000D01*
%TO.N,Net-(R8-Pad2)*%
X121920000Y-76200000D02*
X121920000Y-77470000D01*
X116840000Y-82550000D02*
X116840000Y-83820000D01*
X121920000Y-77470000D02*
X116840000Y-82550000D01*
%TD*%
M02*
