M48
; DRILL file {KiCad 7.0.9} date Thu Jan  4 07:45:39 2024
; FORMAT={-:-/ absolute / metric / decimal}
; #@! TF.CreationDate,2024-01-04T07:45:39-05:00
; #@! TF.GenerationSoftware,Kicad,Pcbnew,7.0.9
; #@! TF.FileFunction,Plated,1,2,PTH
FMAT,2
METRIC
; #@! TA.AperFunction,Plated,PTH,ViaDrill
T1C0.400
; #@! TA.AperFunction,Plated,PTH,ComponentDrill
T2C0.508
; #@! TA.AperFunction,Plated,PTH,ComponentDrill
T3C0.737
; #@! TA.AperFunction,Plated,PTH,ComponentDrill
T4C0.850
%
G90
G05
T1
X124.46Y-110.49
X129.54Y-111.76
X137.16Y-111.76
X139.7Y-110.49
X149.86Y-109.22
X154.94Y-110.49
X160.02Y-111.76
T2
X134.075Y-115.57
X134.74Y-59.69
X135.325Y-115.57
X135.99Y-59.69
X136.575Y-115.57
X137.24Y-59.69
X137.825Y-115.57
X138.49Y-59.69
X139.075Y-115.57
X139.74Y-59.69
X140.325Y-115.57
X140.99Y-59.69
X141.575Y-115.57
X142.24Y-59.69
X142.825Y-115.57
X143.49Y-59.69
X144.075Y-115.57
X144.74Y-59.69
X145.325Y-115.57
T3
X121.92Y-68.58
X121.92Y-76.2
X121.92Y-99.06
X121.92Y-106.68
X127.0Y-68.58
X127.0Y-76.2
X127.0Y-99.06
X127.0Y-106.68
X132.08Y-68.58
X132.08Y-76.2
X132.08Y-99.06
X132.08Y-106.68
X137.16Y-68.58
X137.16Y-76.2
X137.16Y-99.06
X137.16Y-106.68
X142.24Y-68.58
X142.24Y-76.2
X142.24Y-99.06
X142.24Y-106.68
X147.32Y-68.58
X147.32Y-76.2
X147.32Y-99.06
X147.32Y-106.68
X152.4Y-68.58
X152.4Y-76.2
X152.4Y-99.06
X152.4Y-106.68
X157.48Y-68.58
X157.48Y-76.2
X157.48Y-99.06
X157.48Y-106.68
T4
X116.84Y-83.82
X116.84Y-91.44
X119.38Y-83.82
X119.38Y-91.44
X121.92Y-83.82
X121.92Y-91.44
X124.46Y-83.82
X124.46Y-91.44
X127.0Y-83.82
X127.0Y-91.44
X129.54Y-83.82
X129.54Y-91.44
X132.08Y-83.82
X132.08Y-91.44
X134.62Y-83.82
X134.62Y-91.44
X144.78Y-83.82
X144.78Y-91.44
X147.32Y-83.82
X147.32Y-91.44
X149.86Y-83.82
X149.86Y-91.44
X152.4Y-83.82
X152.4Y-91.44
X154.94Y-83.82
X154.94Y-91.44
X157.48Y-83.82
X157.48Y-91.44
X160.02Y-83.82
X160.02Y-91.44
X162.56Y-83.82
X162.56Y-91.44
T0
M30
